<?xml version="1.0" encoding="UTF-8" standalone="no"?>
<!-- Created with Inkscape (http://www.inkscape.org/) -->

<svg
   width="149.99742mm"
   height="168.03041mm"
   viewBox="0 0 149.99742 168.03041"
   version="1.1"
   id="svg5"
   inkscape:version="1.1 (c4e8f9e, 2021-05-24)"
   sodipodi:docname="keeper.svg"
   inkscape:export-filename="/Users/martin/code/gitwork/keeper/app/icon/keeper.png"
   inkscape:export-xdpi="148.64999"
   inkscape:export-ydpi="148.64999"
   xmlns:inkscape="http://www.inkscape.org/namespaces/inkscape"
   xmlns:sodipodi="http://sodipodi.sourceforge.net/DTD/sodipodi-0.dtd"
   xmlns="http://www.w3.org/2000/svg"
   xmlns:svg="http://www.w3.org/2000/svg">
  <sodipodi:namedview
     id="namedview7"
     pagecolor="#ffffff"
     bordercolor="#666666"
     borderopacity="1.0"
     inkscape:pageshadow="2"
     inkscape:pageopacity="0.0"
     inkscape:pagecheckerboard="0"
     inkscape:document-units="mm"
     showgrid="false"
     inkscape:zoom="0.93229456"
     inkscape:cx="244.02159"
     inkscape:cy="325.00458"
     inkscape:window-width="1440"
     inkscape:window-height="847"
     inkscape:window-x="0"
     inkscape:window-y="25"
     inkscape:window-maximized="0"
     inkscape:current-layer="layer3"
     inkscape:snap-intersection-paths="false"
     inkscape:object-nodes="false"
     inkscape:object-paths="true"
     fit-margin-top="0"
     fit-margin-left="0"
     fit-margin-right="0"
     fit-margin-bottom="0"
     inkscape:snap-global="false"
     inkscape:snap-bbox="true"
     inkscape:snap-bbox-midpoints="true"
     inkscape:snap-nodes="false"
     inkscape:snap-others="false"
     inkscape:snap-bbox-edge-midpoints="true" />
  <defs
     id="defs2" />
  <g
     inkscape:label="Layer 1"
     inkscape:groupmode="layer"
     id="layer1"
     style="display:none"
     sodipodi:insensitive="true"
     transform="translate(-27.230208,-66.039798)">
    <path
       style="fill:none;fill-opacity:0;stroke:#000000;stroke-width:0.1;stroke-linecap:round;stroke-opacity:1"
       d="m 73.148364,66.097921 27.320476,27.320477 2.20326,17.626112 6.60979,-4.40653 27.32048,28.20178 -2.64392,19.82938 7.4911,8.3724 v 9.69437 l 6.60979,-3.08457 10.57567,-4.84718 18.50742,21.15133"
       id="path857"
       sodipodi:nodetypes="ccccccccccc" />
    <path
       style="fill:none;fill-opacity:0;stroke:#000000;stroke-width:0.1;stroke-linecap:round;stroke-opacity:1"
       d="m 27.320471,83.283381 27.320479,27.320479 2.203261,17.62611 6.60979,-4.40653 27.32048,28.20178 -2.64392,19.82938 7.4911,8.3724 v 9.69437 l 6.609789,-3.08457 10.57567,-4.84718 18.50742,21.15133"
       id="path1062"
       sodipodi:nodetypes="ccccccccccc" />
    <path
       style="fill:none;fill-opacity:0;stroke:#000000;stroke-width:0.1;stroke-linecap:round;stroke-opacity:1"
       d="M 27.32047,83.283379 73.148364,66.097919"
       id="path1097" />
    <path
       style="fill:none;fill-opacity:0;stroke:#000000;stroke-width:0.1;stroke-linecap:round;stroke-opacity:1"
       d="M 54.64095,110.60386 100.46884,93.418397"
       id="path1099" />
    <path
       style="fill:none;fill-opacity:0;stroke:#000000;stroke-width:0.1;stroke-linecap:round;stroke-opacity:1"
       d="M 63.454001,123.82344 109.28189,106.63798"
       id="path1101" />
    <path
       style="fill:none;fill-opacity:0;stroke:#000000;stroke-width:0.1;stroke-linecap:round;stroke-opacity:1"
       d="M 90.774479,152.02522 136.60237,134.83976"
       id="path1103" />
    <path
       style="fill:none;fill-opacity:0;stroke:#000000;stroke-width:0.1;stroke-linecap:round;stroke-opacity:1"
       d="M 88.130559,171.8546 133.95845,154.66914"
       id="path1105" />
    <path
       style="fill:none;fill-opacity:0;stroke:#000000;stroke-width:0.1;stroke-linecap:round;stroke-opacity:1"
       d="M 95.621659,180.227 141.44955,163.04154"
       id="path1107" />
    <path
       style="fill:none;fill-opacity:0;stroke:#000000;stroke-width:0.1;stroke-linecap:round;stroke-opacity:1"
       d="m 112.80712,181.98962 45.82789,-17.18546"
       id="path1109" />
    <path
       style="fill:none;fill-opacity:0;stroke:#000000;stroke-width:0.1;stroke-linecap:round;stroke-opacity:1"
       d="m 131.31454,203.14095 45.82789,-17.18546"
       id="path1111" />
    <path
       style="fill:#e6faff;fill-opacity:1;stroke:#000000;stroke-width:0.1;stroke-linecap:round;stroke-opacity:1"
       d="M 73.148364,66.097919 177.14243,185.95549"
       id="path9563" />
    <path
       style="fill:#e6faff;fill-opacity:1;stroke:#000000;stroke-width:0.1;stroke-linecap:round;stroke-opacity:1"
       d="M 27.32047,83.283379 131.31454,203.14095"
       id="path9565" />
  </g>
  <g
     inkscape:groupmode="layer"
     id="layer2"
     inkscape:label="Layer 2"
     style="display:none"
     transform="translate(-27.230208,-66.039798)">
    <path
       style="fill:#1affff;fill-opacity:1;stroke:#000000;stroke-width:0.1;stroke-linecap:round;stroke-opacity:1"
       d="m 102.44191,109.20297 -38.987909,14.62047 -6.609791,4.40653 -2.20326,-17.62611 45.82789,-17.185463 z"
       id="path1931" />
    <path
       style="fill:#1ad0ff;fill-opacity:1;stroke:#000000;stroke-width:0.1;stroke-linecap:round;stroke-opacity:1"
       d="m 63.454001,123.82344 45.827889,-17.18546 27.32048,28.20178 -45.827891,17.18546 z"
       id="path1800" />
    <path
       style="fill:#1ad0ff;fill-opacity:1;stroke:#000000;stroke-width:0.1;stroke-linecap:round;stroke-opacity:1"
       d="m 158.63501,164.80416 18.50742,21.15133 -45.82789,17.18546 -18.50742,-21.15133 z"
       id="path1256" />
    <path
       style="fill:#1affff;fill-opacity:1;stroke:#000000;stroke-width:0.1;stroke-linecap:round;stroke-opacity:1"
       d="m 90.774479,152.02522 45.827891,-17.18546 -2.64392,19.82938 -45.827891,17.18546 z"
       id="path5201" />
    <path
       style="fill:#1ad0ff;fill-opacity:1;stroke:#000000;stroke-width:0.1;stroke-linecap:round;stroke-opacity:1"
       d="m 133.95845,154.66914 7.4911,8.3724 -45.827891,17.18546 -7.4911,-8.3724 z"
       id="path6094" />
    <path
       style="fill:#1affff;fill-opacity:1;stroke:#000000;stroke-width:0.1;stroke-linecap:round;stroke-opacity:1"
       d="m 141.44955,163.04154 v 8.20717 l -28.64243,10.74091 -17.185461,7.93175 V 180.227 Z"
       id="path6675" />
    <path
       style="fill:#1ad0ff;fill-opacity:1;stroke:#000000;stroke-width:0.1;stroke-linecap:round;stroke-opacity:1"
       d="M 73.148364,66.097919 100.46884,93.418397 54.64095,110.60386 27.32047,83.283379 Z"
       id="path7724" />
    <path
       style="fill:#e6faff;fill-opacity:1;stroke:none;stroke-width:0.1;stroke-linecap:round;stroke-opacity:1"
       d="m 27.32047,83.283379 27.32048,27.320481 2.20326,17.62611 6.609791,-4.40653 27.320478,28.20178 -2.64392,19.82938 7.4911,8.3724 v 9.69437 l 17.185461,-7.93175 18.50742,21.15133 v 30.92926 L 27.285899,120.64647 Z"
       id="path8305" />
    <path
       style="fill:#e6faff;fill-opacity:1;stroke:none;stroke-width:0.1;stroke-linecap:round;stroke-opacity:1"
       d="m 27.32047,83.283379 27.32048,27.320481 2.20326,17.62611 6.609791,-4.40653 27.320478,28.20178 -2.64392,19.82938 7.4911,8.3724 v 9.69437 l 17.185461,-7.93175 18.50742,21.15133 v 30.92926 L 27.285899,120.64647 Z"
       id="path948" />
  </g>
  <g
     inkscape:groupmode="layer"
     id="layer3"
     inkscape:label="Layer 3">
    <circle
       style="fill:#24bce2;fill-opacity:1;stroke:#000000;stroke-width:3.68601;stroke-linecap:butt;stroke-miterlimit:4;stroke-dasharray:none;stroke-opacity:1"
       id="path2021"
       cx="71.517097"
       cy="87.693581"
       r="61.457359" />
    <circle
       style="display:inline;fill:#24bce2;fill-opacity:1;stroke:#ffffff;stroke-width:4;stroke-linecap:butt;stroke-miterlimit:4;stroke-dasharray:none;stroke-opacity:1"
       id="path1425"
       cx="71.517097"
       cy="87.693581"
       r="57.469093"
       inkscape:export-filename="/Users/martin/code/gitwork/keeper/app/icon/path1425.png"
       inkscape:export-xdpi="148.64999"
       inkscape:export-ydpi="148.64999" />
    <path
       style="display:inline;fill:none;stroke:#ffffff;stroke-width:4;stroke-linecap:butt;stroke-miterlimit:4;stroke-dasharray:none;stroke-opacity:1"
       d="m 20.387498,75.197556 h 24.97423 l 3.97317,10.50052 5.10836,-7.94634 h 26.67701 l 1.98659,11.63572 h 6.243563 l 1.98658,6.24356 6.811146,-11.63572 h 14.189923 l 8.51393,17.311674"
       id="path1139" />
  </g>
</svg>
